<svg width="880" height="354" viewBox="0 0 880 354" fill="none" xmlns="http://www.w3.org/2000/svg">
<path d="M3.2 350L60 211.2H73.6L130.2 350H109.8L63.2 232.6H70.2L23.2 350H3.2ZM30.2 318.6V302.2H103.2V318.6H30.2ZM175.603 352C166.803 352 158.936 349.867 152.003 345.6C145.07 341.2 139.536 335.267 135.403 327.8C131.403 320.333 129.403 311.933 129.403 302.6C129.403 293.267 131.403 284.867 135.403 277.4C139.536 269.933 145.07 264 152.003 259.6C158.936 255.2 166.803 253 175.603 253C182.67 253 189.07 254.533 194.803 257.6C200.536 260.533 205.136 264.667 208.603 270C212.203 275.2 214.203 281.267 214.603 288.2V316.8C214.203 323.6 212.27 329.667 208.803 335C205.336 340.333 200.736 344.533 195.003 347.6C189.27 350.533 182.803 352 175.603 352ZM178.603 335C184.603 335 189.803 333.6 194.203 330.8C198.736 328 202.27 324.2 204.803 319.4C207.336 314.467 208.603 308.867 208.603 302.6C208.603 296.067 207.27 290.4 204.603 285.6C202.07 280.8 198.536 277 194.003 274.2C189.603 271.4 184.403 270 178.403 270C172.403 270 167.136 271.4 162.603 274.2C158.07 277 154.47 280.867 151.803 285.8C149.27 290.6 148.003 296.133 148.003 302.4C148.003 308.8 149.27 314.467 151.803 319.4C154.47 324.2 158.07 328 162.603 330.8C167.27 333.6 172.603 335 178.603 335ZM225.603 350H207.403V324.4L210.803 301.2L207.403 278.2V207.2H225.603V350ZM244.009 350V255H262.009V350H244.009ZM253.009 236C249.676 236 246.943 234.933 244.809 232.8C242.676 230.533 241.609 227.733 241.609 224.4C241.609 221.2 242.676 218.533 244.809 216.4C246.943 214.133 249.676 213 253.009 213C256.343 213 259.076 214.133 261.209 216.4C263.343 218.533 264.409 221.2 264.409 224.4C264.409 227.733 263.343 230.533 261.209 232.8C259.076 234.933 256.343 236 253.009 236ZM320.936 352C312.269 352 304.403 349.867 297.336 345.6C290.269 341.2 284.669 335.267 280.536 327.8C276.536 320.333 274.536 311.933 274.536 302.6C274.536 293.267 276.536 284.867 280.536 277.4C284.669 269.933 290.203 264 297.136 259.6C304.203 255.2 312.136 253 320.936 253C328.136 253 334.536 254.533 340.136 257.6C345.869 260.533 350.469 264.667 353.936 270C357.403 275.2 359.336 281.267 359.736 288.2V316.8C359.336 323.6 357.403 329.667 353.936 335C350.603 340.333 346.069 344.533 340.336 347.6C334.736 350.533 328.269 352 320.936 352ZM323.936 335C332.869 335 340.069 332 345.536 326C351.003 319.867 353.736 312.067 353.736 302.6C353.736 296.067 352.469 290.4 349.936 285.6C347.536 280.667 344.069 276.867 339.536 274.2C335.003 271.4 329.736 270 323.736 270C317.736 270 312.403 271.4 307.736 274.2C303.203 277 299.603 280.867 296.936 285.8C294.403 290.6 293.136 296.133 293.136 302.4C293.136 308.8 294.403 314.467 296.936 319.4C299.603 324.2 303.269 328 307.936 330.8C312.603 333.6 317.936 335 323.936 335ZM352.536 350V324.4L355.936 301.2L352.536 278.2V255H370.736V350H352.536ZM456.142 350V294.6C456.142 287.4 453.876 281.467 449.342 276.8C444.809 272.133 438.942 269.8 431.742 269.8C426.942 269.8 422.676 270.867 418.942 273C415.209 275.133 412.276 278.067 410.142 281.8C408.009 285.533 406.942 289.8 406.942 294.6L399.542 290.4C399.542 283.2 401.142 276.8 404.342 271.2C407.542 265.6 412.009 261.2 417.742 258C423.476 254.667 429.942 253 437.142 253C444.342 253 450.676 254.8 456.142 258.4C461.742 262 466.142 266.733 469.342 272.6C472.542 278.333 474.142 284.467 474.142 291V350H456.142ZM388.942 350V255H406.942V350H388.942ZM503.941 350V215.2H521.941V350H503.941ZM480.541 271.4V255H545.341V271.4H480.541ZM596.044 352C586.577 352 578.044 349.867 570.444 345.6C562.844 341.2 556.844 335.267 552.444 327.8C548.044 320.333 545.844 311.867 545.844 302.4C545.844 293.067 547.977 284.667 552.244 277.2C556.644 269.733 562.51 263.867 569.844 259.6C577.31 255.2 585.644 253 594.844 253C603.644 253 611.377 255 618.044 259C624.844 263 630.11 268.533 633.844 275.6C637.71 282.667 639.644 290.667 639.644 299.6C639.644 300.933 639.577 302.4 639.444 304C639.31 305.467 639.044 307.2 638.644 309.2H558.444V294.2H629.044L622.444 300C622.444 293.6 621.31 288.2 619.044 283.8C616.777 279.267 613.577 275.8 609.444 273.4C605.31 270.867 600.31 269.6 594.444 269.6C588.31 269.6 582.91 270.933 578.244 273.6C573.577 276.267 569.977 280 567.444 284.8C564.91 289.6 563.644 295.267 563.644 301.8C563.644 308.467 564.977 314.333 567.644 319.4C570.31 324.333 574.11 328.2 579.044 331C583.977 333.667 589.644 335 596.044 335C601.377 335 606.244 334.067 610.644 332.2C615.177 330.333 619.044 327.533 622.244 323.8L633.844 335.6C629.31 340.933 623.71 345 617.044 347.8C610.51 350.6 603.51 352 596.044 352ZM667.07 289.6V273.8H704.67C712.804 273.8 719.07 271.733 723.47 267.6C727.87 263.467 730.07 257.867 730.07 250.8C730.07 244.133 727.87 238.6 723.47 234.2C719.204 229.8 713.004 227.6 704.87 227.6H667.07V211.2H705.47C714.27 211.2 721.937 212.933 728.47 216.4C735.004 219.733 740.004 224.333 743.47 230.2C747.07 236.067 748.87 242.8 748.87 250.4C748.87 258.267 747.07 265.133 743.47 271C740.004 276.867 735.004 281.467 728.47 284.8C721.937 288 714.27 289.6 705.47 289.6H667.07ZM654.47 350V211.2H673.27V350H654.47ZM734.47 350L684.07 287.8L701.87 281.6L758.27 350H734.47ZM769.713 350V211.2H788.513V350H769.713ZM859.313 350V211.2H878.113V350H859.313ZM782.513 286.8V269.6H863.913V286.8H782.513Z" fill="black"/>
<path d="M532 75L430 150V0L532 75Z" fill="#0AA9AF"/>
<path d="M654 75L552 150V0L654 75Z" fill="#222222"/>
<circle cx="375.5" cy="74.5" r="12.5" fill="#0AA9AF"/>
<circle cx="330.5" cy="74.5" r="12.5" fill="#222222"/>
</svg>
